<svg id="Layer_1" data-name="Layer 1" xmlns="http://www.w3.org/2000/svg" viewBox="0 0 927.64 283.6"><title>Omni-Single-RGB</title><path d="M105.89,177.3a18.52,18.52,0,1,0-6.44,25.39,18.54,18.54,0,0,0,6.44-25.39" transform="translate(-17.85 -10.86)"/><path d="M102.14,244.57A14.15,14.15,0,1,0,97.21,264a14.17,14.17,0,0,0,4.93-19.4" transform="translate(-17.85 -10.86)"/><path d="M105.89,112.27a18.52,18.52,0,1,0-6.44,25.39,18.53,18.53,0,0,0,6.44-25.39" transform="translate(-17.85 -10.86)"/><path d="M102.14,49.47a14.15,14.15,0,1,0-4.93,19.39,14.18,14.18,0,0,0,4.93-19.39" transform="translate(-17.85 -10.86)"/><path d="M171.25,141a22.89,22.89,0,1,0-8,31.38,22.92,22.92,0,0,0,8-31.38" transform="translate(-17.85 -10.86)"/><path d="M167.5,208.23a18.52,18.52,0,1,0-6.45,25.39,18.55,18.55,0,0,0,6.45-25.39" transform="translate(-17.85 -10.86)"/><path d="M163.74,273.09a14.15,14.15,0,1,0-4.93,19.39,14.17,14.17,0,0,0,4.93-19.39" transform="translate(-17.85 -10.86)"/><path d="M167.49,78.16a18.52,18.52,0,1,0-6.44,25.39,18.54,18.54,0,0,0,6.44-25.39" transform="translate(-17.85 -10.86)"/><path d="M163.74,17.78a14.15,14.15,0,1,0-4.93,19.39,14.16,14.16,0,0,0,4.93-19.39" transform="translate(-17.85 -10.86)"/><path d="M44.16,211.23a14.15,14.15,0,1,0-4.92,19.4,14.17,14.17,0,0,0,4.92-19.4" transform="translate(-17.85 -10.86)"/><path d="M44.16,148.61A14.15,14.15,0,1,0,39.23,168a14.18,14.18,0,0,0,4.93-19.4" transform="translate(-17.85 -10.86)"/><path d="M44.16,86a14.15,14.15,0,1,0-4.93,19.4A14.17,14.17,0,0,0,44.16,86" transform="translate(-17.85 -10.86)"/><path d="M197.5,128a18.52,18.52,0,1,0,6.44-25.39A18.53,18.53,0,0,0,197.5,128" transform="translate(-17.85 -10.86)"/><path d="M201.25,60.76a14.15,14.15,0,1,0,4.93-19.4,14.16,14.16,0,0,0-4.93,19.4" transform="translate(-17.85 -10.86)"/><path d="M197.49,193.06a18.52,18.52,0,1,0,6.45-25.39,18.55,18.55,0,0,0-6.45,25.39" transform="translate(-17.85 -10.86)"/><path d="M201.25,255.86a14.15,14.15,0,1,0,4.93-19.39,14.16,14.16,0,0,0-4.93,19.39" transform="translate(-17.85 -10.86)"/><path d="M259.23,94.1a14.15,14.15,0,1,0,4.92-19.4,14.15,14.15,0,0,0-4.92,19.4" transform="translate(-17.85 -10.86)"/><path d="M259.23,156.72a14.15,14.15,0,1,0,4.93-19.4,14.17,14.17,0,0,0-4.93,19.4" transform="translate(-17.85 -10.86)"/><path d="M259.23,219.34a14.15,14.15,0,1,0,4.93-19.4,14.16,14.16,0,0,0-4.93,19.4" transform="translate(-17.85 -10.86)"/><path d="M910,50.24a19.69,19.69,0,1,0-19.69-19.69A19.68,19.68,0,0,0,910,50.24" transform="translate(-17.85 -10.86)"/><polygon points="861.59 199.5 862.16 199.49 861.59 199.48 861.59 199.5"/><polygon points="899 60.98 859.54 71.21 860.42 77.64 880 74.72 880 190.15 861.96 192.34 863.35 192.49 862.76 199.48 894.03 198.92 927.05 199.5 927.63 192.49 907.76 190.15 907.76 60.4 899 60.98"/><polygon points="709.34 199.5 709.91 199.49 709.33 199.48 709.34 199.5"/><path d="M879.81,203.2,859.86,201V113.93c0-31.86-6.43-45-38.28-45L773.36,99.61l-.88-28.06-7.89.29L725.14,82.07l.88,6.72,19.87-3.21V201l-18.18,2.21,1.23.13-.58,7,31.85-.57,27.47.59.58-7L773.36,201V108.08l9.94-5.84c10.81-7,19.58-12.57,29.8-12.57,12.28,0,18.71,5.85,18.71,22.8V201l-14.32,2.34.87,7,28.35-.59,32.73.57-.88-7Z" transform="translate(-17.85 -10.86)"/><polygon points="862.16 199.49 862.76 199.5 862.76 199.48 862.16 199.49"/><polygon points="861.96 192.34 860.71 192.49 861.59 199.48 862.16 199.49 862.76 199.48 863.34 192.49 861.96 192.34"/><polygon points="861.96 192.34 860.71 192.49 861.59 199.48 862.16 199.49 862.76 199.48 863.34 192.49 861.96 192.34"/><path d="M727.71,203.22,707.61,201V115.1c0-32.15-6.43-46.18-38.28-46.18L623.44,99.61c-1.75-21-12.56-30.69-37.69-30.69L540.16,99.31l-.59-27.76-8.18.29L492.23,82.07l.88,6.73L513,85.58V201l-19.29,2.34.59,7,32.43-.59,27.47.59.59-7L540.45,201V108.38l9.64-6.43c9.06-6.14,19.29-12.28,28.64-12.28,11.11,0,17.24,5.85,17.24,22.8V201l-13.44,2.34.59,7,27.76-.59,26,.59.87-7L624,201V108.38l9.64-6.43C642.73,95.81,653,89.67,662,89.67c11.4,0,17.53,5.85,17.53,22.8V201l-14.32,2.34.88,7,28.64-.59,32.44.57-.59-7Z" transform="translate(-17.85 -10.86)"/><polygon points="709.92 199.49 710.51 199.5 710.51 199.48 709.92 199.49"/><polygon points="709.86 192.35 708.75 192.49 709.34 199.48 709.92 199.49 710.51 199.48 711.09 192.49 709.86 192.35"/><polygon points="709.86 192.35 708.75 192.49 709.34 199.48 709.92 199.49 710.51 199.48 711.09 192.49 709.86 192.35"/><path d="M427.06,203.94c-24.55,0-41.5-28.64-41.5-66.93,0-34.77,11.69-57.57,34.19-57.57,24,0,41.8,25.43,41.8,66.93,0,34.19-12,57.57-34.49,57.57m.29-135c-43.54,8.77-71.59,31.27-71.59,76,0,40,26.3,69.56,63.7,69.56,43.84-8.18,71.6-31.27,71.6-76,0-40-26-69.55-63.71-69.55" transform="translate(-17.85 -10.86)"/></svg>